# xmcd
#
# Track frame offsets:
#	150
#	6285
#	24265
#	52215
#	74630
#	98305
#	120485
#	146310
#	176365
#	202645
#	239810
#	264330
#
# Disc length: 3745 seconds
#
# Revision: 0
# Processed by: cddbd v1.5.1PL2 Copyright (c) Steve Scherf et al.
# Submitted via: EasyCDDAExtractor 8.0.2.1
#
DISCID=990e9f0c
DTITLE=Deep Purple - Schleyerhalle Stuttgart 11-02-06 Disc 1
DYEAR=2006
DGENRE=Hard Rock
TTITLE0=Pictures Of Home
TTITLE1=Thinga I Never Said
TTITLE2=Wrong Man
TTITLE3=Ted The Mechanic
TTITLE4=Living Wreck
TTITLE5=Rapture Of The Deep
TTITLE6=Before Time Began
TTITLE7=Mary Long
TTITLE8=Contact Lost - The Well Dressed Guitar
TTITLE9=Lazy
TTITLE10=Perfect Strangers
TTITLE11=Kiss Tomorrow Goodbye
EXTD=
EXTT0=
EXTT1=
EXTT2=
EXTT3=
EXTT4=
EXTT5=
EXTT6=
EXTT7=
EXTT8=
EXTT9=
EXTT10=
EXTT11=
PLAYORDER=
